# xmcd
#
# Track frame offsets:
#	150
#	19619
#	35710
#	51632
#	67073
#	84251
#	104221
#	121036
#	136709
#	153457
#	172222
#	188558
#
# Disc length: 2811 seconds
#
# Revision: 1
# Processed by: cddbd v1.5.2PL0 Copyright (c) Steve Scherf et al.
# Submitted via: audiograbber 1.83.01
#
DISCID=a60af90c
DTITLE=Carolyn Dawn Johnson - Dress Rehearsal
DYEAR=2004
DGENRE=country
TTITLE0=Dress Rehearsal
TTITLE1=He's Mine
TTITLE2=Simple Life
TTITLE3=Die Of A Broken Heart
TTITLE4=We Talked
TTITLE5=God Doesn't Makr Mistakes
TTITLE6=Squeezin' The Love Outta You
TTITLE7=Head Over High Heels
TTITLE8=My Little Secret
TTITLE9=Just Another Plane
TTITLE10=Life As We Know It
TTITLE11=I'll Let You Go
EXTD=
EXTT0=
EXTT1=
EXTT2=
EXTT3=
EXTT4=
EXTT5=
EXTT6=
EXTT7=
EXTT8=
EXTT9=
EXTT10=
EXTT11=
PLAYORDER=
